<svg id="visual" viewBox="0 0 900 600" width="900" height="600" xmlns="http://www.w3.org/2000/svg" xmlns:xlink="http://www.w3.org/1999/xlink" version="1.1"><rect x="0" y="0" width="900" height="600" fill="#000"></rect><defs><linearGradient id="grad1_0" x1="33.3%" y1="0%" x2="100%" y2="100%"><stop offset="20%" stop-color="#000000" stop-opacity="1"></stop><stop offset="80%" stop-color="#000000" stop-opacity="1"></stop></linearGradient></defs><defs><linearGradient id="grad2_0" x1="0%" y1="0%" x2="66.7%" y2="100%"><stop offset="20%" stop-color="#000000" stop-opacity="1"></stop><stop offset="80%" stop-color="#000000" stop-opacity="1"></stop></linearGradient></defs><g transform="translate(900, 0)"><path d="M0 486.7C-66.7 473.2 -133.5 459.6 -174.1 420.4C-214.8 381.1 -229.3 316.1 -277.9 277.9C-326.5 239.7 -409.2 228.1 -449.7 186.3C-490.2 144.4 -488.5 72.2 -486.7 0L0 0Z" fill="#FFC700"></path></g><g transform="translate(0, 600)"><path d="M0 -486.7C49.8 -439.7 99.6 -392.7 152.3 -367.7C205 -342.7 260.6 -339.7 314.7 -314.7C368.7 -289.6 421.3 -242.4 449.7 -186.3C478.1 -130.1 482.4 -65.1 486.7 0L0 0Z" fill="#FFC700"></path></g></svg>