<svg width="744" height="93" viewBox="0 0 744 93" fill="none" xmlns="http://www.w3.org/2000/svg">
<path d="M0 90H43.008C63.36 90 75.904 80.656 75.904 66.448C75.904 52.368 64 46.48 49.92 46.224V39.568C62.848 39.056 72.96 33.04 72.96 20.752C72.96 10 64.256 0.399994 44.16 0.399994H0V90ZM19.456 35.856V16.528H39.936C48.384 16.528 53.504 18.96 53.504 26.128C53.504 33.04 48.256 35.856 39.936 35.856H19.456ZM19.456 73.872V51.472H40.192C49.28 51.472 55.808 54.672 55.808 62.736C55.808 70.928 49.28 73.872 40.192 73.872H19.456Z" fill="#FFC700"/>
<path d="M116.832 92.048C136.416 92.048 150.496 78.864 150.496 58C150.496 37.52 136.416 24.08 116.832 24.08C97.248 24.08 83.168 37.52 83.168 58C83.168 77.712 97.248 92.048 116.832 92.048ZM116.832 77.584C108.128 77.584 102.112 71.44 102.112 58.256C102.112 45.072 108.128 38.416 116.832 38.416C125.536 38.416 131.552 45.072 131.552 58.256C131.552 71.44 125.536 77.584 116.832 77.584Z" fill="#FFC700"/>
<path d="M190.522 92.048C210.106 92.048 224.186 78.864 224.186 58C224.186 37.52 210.106 24.08 190.522 24.08C170.938 24.08 156.858 37.52 156.858 58C156.858 77.712 170.938 92.048 190.522 92.048ZM190.522 77.584C181.818 77.584 175.802 71.44 175.802 58.256C175.802 45.072 181.818 38.416 190.522 38.416C199.226 38.416 205.242 45.072 205.242 58.256C205.242 71.44 199.226 77.584 190.522 77.584Z" fill="#FFC700"/>
<path d="M282.388 90H305.3L274.964 51.344L301.076 26H278.804L248.724 56.208L243.86 50.96C249.62 46.224 253.076 41.488 253.076 28.688V0.399994H234.9V90H253.076V72.464L262.42 63.504L282.388 90Z" fill="#FFC700"/>
<path d="M332.669 91.792C351.357 91.792 362.365 83.472 362.365 70.672C362.365 58.512 352.381 53.008 340.349 50.704L331.517 49.04C324.605 47.76 322.685 46.096 322.685 42.768C322.685 39.312 325.629 36.624 331.773 36.624C338.173 36.624 342.781 40.336 344.701 45.584L359.677 38.8C356.861 32.4 348.669 24.08 332.669 24.08C315.517 24.08 305.149 32.144 305.149 44.304C305.149 56.848 312.957 61.328 326.397 64.016L335.485 65.808C342.013 67.088 343.421 69.648 343.421 72.592C343.421 76.176 340.093 78.992 333.693 78.992C321.277 78.992 319.357 69.648 319.101 68.24L302.589 73.488C305.277 84.752 317.565 91.792 332.669 91.792Z" fill="#FFC700"/>
<path d="M372.655 90H390.831V59.664C390.831 52.88 390.959 39.056 403.631 39.056C409.903 39.056 413.871 42.64 413.871 51.088V90H432.047V47.632C432.047 33.424 424.367 24.08 410.287 24.08C400.047 24.08 393.647 31.632 390.703 40.72H382.767C386.735 35.088 390.831 27.664 390.831 13.968V0.399994H372.655V90Z" fill="#FFC700"/>
<path d="M474.758 92.048C494.214 92.048 502.278 81.552 505.862 73.36L489.606 67.088C486.918 73.104 482.95 78.224 474.758 78.224C466.95 78.224 460.934 73.616 460.422 62.352H505.606C507.398 40.976 496.134 24.08 474.63 24.08C456.07 24.08 442.246 37.776 442.246 57.872C442.246 78.864 455.046 92.048 474.758 92.048ZM461.062 49.552C462.342 41.488 467.334 37.136 474.63 37.136C482.31 37.136 486.918 41.616 487.686 49.552H461.062Z" fill="#FFC700"/>
<path d="M516.91 90H535.086V0.399994H516.91V90Z" fill="#FFC700"/>
<path d="M566.993 90H588.753L612.049 26H593.489L585.041 52.24C581.841 61.968 581.585 67.6 581.329 78.992H574.545C574.289 67.6 573.777 62.608 570.321 52.24L561.489 26H542.417L566.993 90Z" fill="#FFC700"/>
<path d="M647.078 92.048C666.534 92.048 674.598 81.552 678.182 73.36L661.926 67.088C659.238 73.104 655.27 78.224 647.078 78.224C639.27 78.224 633.254 73.616 632.742 62.352H677.926C679.718 40.976 668.454 24.08 646.95 24.08C628.39 24.08 614.566 37.776 614.566 57.872C614.566 78.864 627.366 92.048 647.078 92.048ZM633.382 49.552C634.662 41.488 639.654 37.136 646.95 37.136C654.63 37.136 659.238 41.616 660.006 49.552H633.382Z" fill="#FFC700"/>
<path d="M713.934 91.792C732.622 91.792 743.63 83.472 743.63 70.672C743.63 58.512 733.646 53.008 721.614 50.704L712.782 49.04C705.87 47.76 703.95 46.096 703.95 42.768C703.95 39.312 706.894 36.624 713.038 36.624C719.438 36.624 724.046 40.336 725.966 45.584L740.942 38.8C738.126 32.4 729.934 24.08 713.934 24.08C696.782 24.08 686.414 32.144 686.414 44.304C686.414 56.848 694.222 61.328 707.662 64.016L716.75 65.808C723.278 67.088 724.686 69.648 724.686 72.592C724.686 76.176 721.358 78.992 714.958 78.992C702.542 78.992 700.622 69.648 700.366 68.24L683.854 73.488C686.542 84.752 698.83 91.792 713.934 91.792Z" fill="#FFC700"/>
</svg>
